<svg xmlns="http://www.w3.org/2000/svg" viewBox="0 0 64 64">
  <defs>
    <linearGradient id="g" x1="0" y1="0" x2="1" y2="1">
      <stop offset="0%" stop-color="#667eea"/>
      <stop offset="100%" stop-color="#764ba2"/>
    </linearGradient>
  </defs>
  <rect width="64" height="64" rx="12" fill="url(#g)"/>
  <g fill="#fff">
    <path d="M18 20h28a2 2 0 0 1 2 2v20a2 2 0 0 1-2 2H18a2 2 0 0 1-2-2V22a2 2 0 0 1 2-2zm2 6v14h24V26H20z"/>
    <circle cx="24" cy="33" r="3"/>
    <path d="M30 40h14v-2a6 6 0 0 0-12 0v2z"/>
  </g>
</svg>

